<?xml version="1.0" encoding="UTF-8"?>
<svg id="KHAM_Logo_Design" xmlns="http://www.w3.org/2000/svg" version="1.1" viewBox="0 0 1500 1500">
  <!-- Generator: Adobe Illustrator 29.8.1, SVG Export Plug-In . SVG Version: 2.1.1 Build 2)  -->
  <defs>
    <style>
      .st0 {
        fill: #90553c;
      }
    </style>
  </defs>
  <path class="st0" d="M371.24,1280.05c-128.38-122.23-181.01-262.1-203.11-339.07,64.71,93.6,234.99,311.15,514.95,377.37,81.52,19.27,207.16,49.09,323.91-18.75,13.93-8.08,129.08-77.46,158.27-208.96,42.47-191.26-145.53-294.96-182.54-579.48-14.59-112.26.18-207.36,14.57-269.29-41.56,31.58-159.29,129.82-197.29,298.91-9.84,43.82-25.57,113.81-3.74,196.36,42.47,160.73,181.54,195.81,174.16,307.04-3.77,56.95-43.98,106.16-82.55,130.07-123.06,76.34-335.08-35.21-447.4-161.65-13.75-15.46-139.52-161.19-136.92-362.25,3.4-262.1,223.6-515.33,552.58-627.29-16.99,26.47-37.04,50.74-58.48,73.69-20.3,21.72-43.32,45.6-72.13,55.49-137.44,47.13-186.01,113.6-217.52,143.11-82.36,77.11-96.29,188.04-101.29,227.66-24.14,192.06,95.11,335.49,134.95,383.42,30.87,37.13,81.29,99.45,171.9,141.6,63.66,29.62,121.91,37.91,159.64,40.26-37.08-24.98-89.01-66.36-136.32-130.07-59.71-80.42-84.58-159.39-95.68-207.29-7.88-39.64-44.05-221.98,54.87-366.82,61.36-89.81,106.98-109.56,200.28-215.86,34.55-39.37,53.94-95.72,63.32-146.51l206.36,66.17c-11.39,52.59-24.87,104.7-36.01,157.33-33.34,157.45-8.11,319.3,77.8,456.03,59.9,95.33,122.6,207.02,124.04,322.77v-.05c3.2,213.53-189.48,357.32-191.49,358.78-128.49,95.54-269.08,95.54-315.32,95.54-244.95,0-408.95-155.57-453.77-198.25"/>
</svg>